name processed_emg_signals
nRows=90
nColumns=7
 
endheader
time	RGLTMED	RRF	RADDLONG	RST	RTA	RGM
0.642	0.1824658829099815	0.0953882477545075	0.6239137416586243	0.1232104202354876	0.5085601895673149	0.0315016622444742
0.643	0.1837040268265994	0.0953145841682675	0.6246502245435164	0.1201047274380814	0.5153635384707309	0.0311070159591071
0.644	0.1849383232105589	0.0952249732272784	0.6253300794735481	0.1170580060272319	0.5220960745300353	0.0306170953299375
0.645	0.1861677620242352	0.0951192152276268	0.6259521629010821	0.11407069092033	0.528754779558697	0.0300343532744578
0.646	0.1873913397131011	0.0949971252805229	0.626515369859834	0.1111431788709536	0.5353367127126105	0.0293612330536494
0.647	0.1886080604057326	0.0948585346112769	0.6270186369913661	0.108275828544012	0.5418390124592974	0.0286001665717816
0.648	0.1898169370955433	0.0947032917946131	0.6274609455811683	0.1054689606074292	0.548258898468524	0.0277535727730493
0.649	0.1910169928018328	0.0945312639189727	0.6278413245977322	0.1027228578418618	0.5545936734282426	0.0268238561353837
0.65	0.1922072617074925	0.0943423376728753	0.6281588537275989	0.1000377652700249	0.5608407247907452	0.0258134052614605
0.651	0.1933867902705707	0.0941364203470299	0.6284126663982839	0.0974138903067412	0.5669975264544118	0.0247245915667044
0.652	0.1945546383070756	0.0939134407465949	0.6286019527807445	0.0948514029309288	0.5730616403862467	0.0235597680637194
0.653	0.1957098800424342	0.0936733500089384	0.6287259627621392	0.0923504358805273	0.5790307181896724	0.022321268242277
0.654	0.1968516051294962	0.0934161223231568	0.6287840088788796	0.0899110848714333	0.5849025026210644	0.0210114050436569
0.655	0.1979789196312121	0.0931417555485519	0.6287754691987302	0.0875334088414512	0.5906748290571758	0.0196324699278468
0.656	0.1990909469669232	0.0928502717301541	0.6286997901397203	0.0852174302202761	0.5963456269143984	0.0181867320318757
0.657	0.2001868288215384	0.0925417175103495	0.6285564892127554	0.0829631352264166	0.6019129210192202	0.0166764374173583
0.658	0.2012657260175814	0.0922161644365138	0.6283451576744365	0.0807704741918853	0.6073748329278326	0.0151038084051791
0.659	0.20232681935044	0.0918737091655188	0.6280654630762741	0.078639361915229	0.6127295821912798	0.0134710429950984
0.66	0.2033693103877918	0.0915144735666605	0.6277171516967893	0.0765696780433903	0.6179754875611903	0.0117803143679486
0.661	0.2043924222344381	0.0911386047254222	0.6273000508437034	0.0745612674825891	0.6231109681303448	0.0100337704679916
0.662	0.2053954002644512	0.0907462748511547	0.6268140710143314	0.0726139408383077	0.6281345444021593	0.008233533662892
0.663	0.2063775128224517	0.0903376810923657	0.6262592079039172	0.0707274748842352	0.6330448392837104	0.00638170047871
0.664	0.2073380518960553	0.0899130452636033	0.6256355442528964	0.06890161305982	0.6378405789981751	0.0044803414071776
0.665	0.2082763337612758	0.0894726134883954	0.6249432515262826	0.0671360659959075	0.6425205939138244	0.002531500782444
0.666	0.2091916996021925	0.0890166557630284	0.6241825914197942	0.0654305120677198	0.647083819287896	0.0005371967243474
0.667	0.2100835161059695	0.0885454654460797	0.6233539171890847	0.0637845979743363	0.6515292959242428	0.0015005788548521
0.668	0.2109511760337238	0.0880593586787738	0.6224576747987568	0.0621979393435851	0.6558561707436621	0.0035798601834607
0.669	0.2117940987671794	0.0875586737410858	0.6214944038869795	0.060670121361301	0.6600636972654331	0.005698707506331
0.67	0.21261173083096	0.0870437703486499	0.6204647385406409	0.0592006994235544	0.6641512359979954	0.0078552069072111
0.671	0.2134035463899071	0.086515028895335	0.6193694078747817	0.0577891998105266	0.6681182547362424	0.0100474700808542
0.672	0.2141690477209251	0.0859728496463598	0.6182092364107269	0.056435120380385	0.6719643287624784	0.0122736340583432
0.673	0.2149077656590706	0.0854176518866232	0.6169851442478801	0.0551379312814909	0.6756891409476552	0.0145318608891788
0.674	0.215619260017512	0.0848498730287902	0.6156981470253048	0.0538970756810555	0.6792924817487377	0.0168203372836493
0.675	0.2163031199814395	0.0842699676854693	0.6143493556695042	0.0527119705085379	0.6827742490973053	0.0191372742191516
0.676	0.2169589644759785	0.083678406709655	0.6129399759254072	0.0515820072119294	0.6861344481740687	0.0214809065141048
0.677	0.2175864425082417	0.0830756762074226	0.6114713076678138	0.0505065525252835	0.6893731910642419	0.0238494923732263
0.678	0.2181852334836226	0.0824622765265399	0.609944743991475	0.049484949245867	0.6924906962895064	0.0262413129079272
0.679	0.2187550474962687	0.0818387212244568	0.6083617700785383	0.0485165170193427	0.6954872882136827	0.0286546716356347
0.68	0.2192956255932663	0.0812055360189209	0.6067239618433773	0.0476005531314489	0.6983633963208159	0.0310878939618598
0.681	0.219806740011915	0.0805632577241506	0.6050329843554896	0.0467363333048446	0.7011195543659516	0.0335393266488299
0.682	0.2202881943893232	0.0799124331754127	0.6032905900420458	0.0459231124997448	0.7037563993996574	0.0360073372745686
0.683	0.2207398239434886	0.0792536181446394	0.6014986166724091	0.0451601257172262	0.7062746706676318	0.0384903136863405
0.684	0.2211614956253366	0.0785873762497306	0.5996589851276608	0.0444465888039737	0.7086752083863777	0.0409866634524123
0.685	0.2215531082410212	0.0779142778602053	0.5977736969596246	0.043781699257384	0.7109589523950853	0.0434948133161207
0.686	0.221914592544228	0.0772348990019555	0.5958448317444414	0.0431646370298351	0.7131269406825681	0.0460132086562269
0.687	0.2222459112981175	0.0765498202638368	0.5938745442371327	0.0425945653309785	0.7151803077866435	0.0485403129574892
0.6880000000000001	0.2225470593069211	0.0758596257089098	0.5918650613339286	0.0420706314269723	0.7171202830622866	0.0510746072953314
0.6890000000000001	0.2228180634175831	0.075164901792978	0.5898186788501014	0.0415919674355736	0.7189481888141165	0.0536145898384604
0.6900000000000001	0.2230589824922911	0.0744662362931043	0.5877377581216615	0.0411576911161907	0.7206654382886867	0.0561587753731288
0.6910000000000001	0.2232699073532664	0.0737642172485226	0.5856247224402253	0.040766906654048	0.7222735335221587	0.0587056948527063
0.6920000000000001	0.2234509607014255	0.0730594319163407	0.583482053331436	0.0404187054377175	0.7237740630393888	0.0612538949760268
0.6930000000000001	0.2236022970105349	0.0723524657442343	0.5813122866880865	0.0401121668292789	0.7251686994010376	0.063801937797903
0.6940000000000001	0.2237241023985824	0.0716439013622489	0.5791180087695933	0.0398463589264681	0.7264591965963142	0.0663484003750142
0.6950000000000001	0.2238165944774774	0.0709343175956505	0.5769018520793946	0.0396203393160838	0.727647387280541	0.0688918744502811
0.6960000000000001	0.2238800221824055	0.0702242885007601	0.5746664911319286	0.0394331558182507	0.728735179859054	0.0714309661786047
0.6970000000000001	0.2239146655818024	0.0695143824255219	0.5724146381200163	0.0392838472209753	0.729724555421733	0.0739642958967544
0.6980000000000001	0.2239208356690568	0.0688051610964257	0.5701490384933114	0.0391714440047481	0.7306175645354985	0.0764904979398897
0.6990000000000001	0.2238988741367596	0.0680971787333082	0.5678724664575462	0.0390949690567468	0.7314163239042738	0.0790082205070426
0.7000000000000001	0.2238491531341708	0.0673909811933784	0.5655877204038834	0.0390534383742212	0.7321230129068834	0.0815161255776509
0.7010000000000001	0.2237720750080563	0.0666871051456431	0.5632976182763176	0.0390458617565209	0.732739870023608	0.0840128888809778
0.7020000000000001	0.2236680720268044	0.0659860772767255	0.5610049928845026	0.0390712434850766	0.7332691891623188	0.0864971999200923
0.7030000000000001	0.2235376060871106	0.0652884135289434	0.5587126871680298	0.0391285829906017	0.7337133158953005	0.088967762051841
0.704	0.2233811684025795	0.0645946183713134	0.5564235494175857	0.0392168755067628	0.7340746436177299	0.0914232926240664
0.705	0.2231992791730013	0.0639051841039425	0.5541404284577994	0.0393351127096368	0.7343556096381592	0.0938625231711166
0.706	0.2229924872330956	0.0632205901962835	0.5518661687966145	0.0394822833425169	0.7345586912102346	0.0962841996684875
0.707	0.2227613696786186	0.062541302659457	0.5496036057457806	0.0396573738257125	0.7346864015136029	0.0986870828472595
0.708	0.2225065314675018	0.0618677734530291	0.5473555605170016	0.0398593688512136	0.7347412855906306	0.1010699485687062
0.709	0.2222286049931662	0.0612004399266581	0.5451248352982877	0.0400872519621572	0.7347259162441127	0.1034315882592546
0.71	0.2219282496266582	0.0605397242971188	0.5429142083155726	0.0403400061170965	0.7346428898997326	0.1057708094056437
0.711	0.2216061512243611	0.0598860331613271	0.5407264288859868	0.0406166142390723	0.7344948224357387	0.1080864361098346
0.712	0.2212630215977331	0.0592397570458939	0.538564212471108	0.0409160597496909	0.7342843449810665	0.1103773097028793
0.713	0.2208995979420617	0.058601269993654	0.5364302357398522	0.041237327088401	0.7340140996819173	0.1126422894166148
0.714	0.2205166422218606	0.0579709291875871	0.5343271316519472	0.0415794022172626	0.733686735435498	0.1148802531116326
0.715	0.2201149405110998	0.057349074612448	0.532257484572848	0.0419412731115769	0.7333049035879732	0.1170900980596744
0.716	0.2196953022874928	0.0567360287542849	0.5302238254307515	0.042321930236744	0.7328712535920872	0.1192707417781673
0.717	0.2192585596810455	0.0561320963380898	0.5282286269255002	0.0427203670117546	0.7323884286188203	0.1214211229142958
0.718	0.2188055666779674	0.0555375641036402	0.5262742987984389	0.0431355802596912	0.7318590611175385	0.1235402021755861
0.719	0.2183371982815828	0.054952700619765	0.5243631831719183	0.0435665706456129	0.7312857683209306	0.125626963303602
0.72	0.217854349631971	0.0543777561371537	0.5224975499670076	0.0440123431021907	0.7306711476941806	0.1276804140869079
0.721	0.2173579350859158	0.0538129624799153	0.5206795924083817	0.0444719072434674	0.7300177723318815	0.1296995874090662
0.722	0.2168488872583298	0.0532585329759812	0.5189114226260753	0.0449442777671955	0.7293281863099884	0.1316835423269998
0.723	0.2163281560261464	0.0527146624263689	0.5171950673645915	0.0454284748462122	0.7286049000031523	0.1336313651746488
0.724	0.2157967074954734	0.0521815271130992	0.5155324638100546	0.0459235245095671	0.7278503853799385	0.1355421706864506
0.725	0.2152555229328633	0.0516592848455547	0.5139254555464169	0.0464284590142842	0.7270670712896411	0.1374151031347357
0.726	0.2147055976618781	0.0511480750447774	0.512375788651154	0.04694231720867	0.7262573387552829	0.1392493374746807
0.727	0.2141479399260393	0.0506480188651636	0.5108851079403547	0.0474641448883869	0.7254235162882083	0.1410440804900783
0.728	0.2135835697197136	0.0501592193529324	0.5094549533716943	0.0479929951462433	0.7245678752403482	0.1427985719327225
0.729	0.2130135175879327	0.0496817616405743	0.5080867566125915	0.0485279287167436	0.7236926252110103	0.1445120856479403
0.73	0.2124388233963767	0.0492157131764086	0.5067818377791167	0.0490680143162476	0.7227999095252945	0.1461839306783834
0.731	0.2118605350722051	0.0487611239883508	0.5055414023503578	0.0496123289795374	0.7218918008008531	0.1478134523378531
